<svg xmlns="http://www.w3.org/2000/svg"  viewBox="0 0 72 72" width="64px" height="64px" baseProfile="basic"><path fill="#060000" d="M36,12c13.234,0,24,10.766,24,24c0,13.234-10.766,24-24,24S12,49.234,12,36	C12,22.766,22.766,12,36,12z M45.242,40.833c-2.187-1.94-1.894-1.626,0.74-4.98c1.604-2.044,2.236-3.927,2.085-4.477	C47.962,30.992,47.35,31,46.697,31c-0.653,0-3.63,0.023-3.927,0.023s-0.29-0.003-0.507,0.121c-0.212,0.121-0.348,0.367-0.348,0.367	s-0.66,2.233-1.49,3.578c-1.747,2.837-2.729,2.621-3.016,2.443c-0.664-0.411-0.543-1.649-0.543-2.53c0-2.75,0.318-3.533-0.969-3.83	c-0.426-0.098-0.74-0.163-1.831-0.174c-1.402-0.013-2.215,0.055-2.812,0.321c-0.447,0.21-0.798,0.578-0.588,0.605	c0.26,0.034,0.854,0.249,1.165,0.654c0.403,0.524,0.369,1.699,0.369,1.699s0.252,2.737-0.521,3.138	c-0.529,0.276-1.254,0.212-2.813-2.362c-0.798-1.319-1.424-3.387-1.424-3.387s-0.116-0.278-0.324-0.424	C26.867,31.066,26.516,31,26.516,31l-3.729,0.001c0,0-0.561-0.03-0.767,0.203c-0.182,0.208-0.015,0.55-0.015,0.55	s2.829,6.785,6.055,10.154C30.34,44.291,32.625,45,34.732,45h1.202c0.647,0,0.933-0.149,0.933-0.483c0-0.93-0.007-2.019,0.797-2.26	c0.96-0.287,2.326,1.368,3.63,2.222c0.8,0.53,1.736,0.52,1.736,0.52h3.845c0,0,1.825-0.167,0.959-1.539	C47.764,43.348,47.33,42.686,45.242,40.833z"/></svg>